# xmcd
# 
# Track frame offsets:
#     150
#     23127
#     38827
#     59662
#     76440
#     96522
#     123782
#     144025
#     163400
#     181900
#     201562
#     216745
#     233712
#     259662
#     279880
#     299322
# 
# Disc length: 4388
# 
# Revision: 1
# Processed by: cddbd v1.5.2PL0 Copyright (c) Steve Scherf et al.
# Submitted via: BonkEnc v1.0.6
# 
DISCID=f1112210
DTITLE=Otis Spann - Otis Spann Is The Blues
DYEAR=0
DGENRE=Blues
TTITLE0=The Hard Way
TTITLE1=Take A Little Walk With Me
TTITLE2=Otis In The Dark
TTITLE3=Little Boy Blue
TTITLE4=Country Boy
TTITLE5=Beat-Up Team
TTITLE6=My Daily Wish
TTITLE7=Great Northern Stomp
TTITLE8=Ramblin' On My Mind
TTITLE9=Worried Life Blues
TTITLE10=Spann And Bob
TTITLE11=Can't Stand Your Evil Ways (Take 2)
TTITLE12=Talkin' The Blues (Take 1)
TTITLE13=Baby Child (Take 3)
TTITLE14=Cow Cow Blues (Take 3)
TTITLE15=Beat-Up Team (First Version)
EXTD=
EXTT0=
EXTT1=
EXTT2=
EXTT3=
EXTT4=
EXTT5=
EXTT6=
EXTT7=
EXTT8=
EXTT9=
EXTT10=
EXTT11=
EXTT12=
EXTT13=
EXTT14=
EXTT15=
PLAYORDER=
